<mxfile host="app.diagrams.net" modified="2023-12-19T15:49:12.373Z" agent="Mozilla/5.0 (Windows NT 10.0; Win64; x64) AppleWebKit/537.36 (KHTML, like Gecko) Chrome/120.0.0.0 Safari/537.36" etag="nC0yiKEG4fIEyCG6Qeva" version="22.1.11" type="github">
  <diagram name="Page-1" id="kBbhrOJurJT0HmkiyJ2V">
    <mxGraphModel dx="1820" dy="1004" grid="1" gridSize="10" guides="1" tooltips="1" connect="1" arrows="1" fold="1" page="1" pageScale="1" pageWidth="850" pageHeight="1100" math="0" shadow="0">
      <root>
        <mxCell id="0" />
        <mxCell id="1" parent="0" />
        <mxCell id="bpbYqcK5zOJnf0tQpgTc-2" value="nama_perusahaan&amp;nbsp;" style="rounded=0;whiteSpace=wrap;html=1;" parent="1" vertex="1">
          <mxGeometry x="150" y="130" width="120" height="60" as="geometry" />
        </mxCell>
        <mxCell id="bpbYqcK5zOJnf0tQpgTc-3" value="alamat_perusahaan&amp;nbsp;" style="rounded=0;whiteSpace=wrap;html=1;" parent="1" vertex="1">
          <mxGeometry x="270" y="130" width="120" height="60" as="geometry" />
        </mxCell>
        <mxCell id="bpbYqcK5zOJnf0tQpgTc-4" value="no_transaksi&amp;nbsp;" style="rounded=0;whiteSpace=wrap;html=1;" parent="1" vertex="1">
          <mxGeometry x="30" y="130" width="120" height="60" as="geometry" />
        </mxCell>
        <mxCell id="bpbYqcK5zOJnf0tQpgTc-5" value="tgl" style="rounded=0;whiteSpace=wrap;html=1;" parent="1" vertex="1">
          <mxGeometry x="390" y="130" width="120" height="60" as="geometry" />
        </mxCell>
        <mxCell id="bpbYqcK5zOJnf0tQpgTc-7" value="alamat_pelangan" style="rounded=0;whiteSpace=wrap;html=1;" parent="1" vertex="1">
          <mxGeometry x="630" y="130" width="120" height="60" as="geometry" />
        </mxCell>
        <mxCell id="bpbYqcK5zOJnf0tQpgTc-8" value="penerima" style="rounded=0;whiteSpace=wrap;html=1;" parent="1" vertex="1">
          <mxGeometry x="870" y="130" width="120" height="60" as="geometry" />
        </mxCell>
        <mxCell id="bpbYqcK5zOJnf0tQpgTc-9" value="hormat_kami" style="rounded=0;whiteSpace=wrap;html=1;" parent="1" vertex="1">
          <mxGeometry x="990" y="130" width="120" height="60" as="geometry" />
        </mxCell>
        <mxCell id="bpbYqcK5zOJnf0tQpgTc-10" value="keterangan" style="rounded=0;whiteSpace=wrap;html=1;" parent="1" vertex="1">
          <mxGeometry x="1110" y="130" width="120" height="60" as="geometry" />
        </mxCell>
        <mxCell id="bpbYqcK5zOJnf0tQpgTc-11" value="terbilang" style="rounded=0;whiteSpace=wrap;html=1;" parent="1" vertex="1">
          <mxGeometry x="1230" y="130" width="120" height="60" as="geometry" />
        </mxCell>
        <mxCell id="bpbYqcK5zOJnf0tQpgTc-12" value="potongan" style="rounded=0;whiteSpace=wrap;html=1;" parent="1" vertex="1">
          <mxGeometry x="1350" y="130" width="120" height="60" as="geometry" />
        </mxCell>
        <mxCell id="bpbYqcK5zOJnf0tQpgTc-13" value="id_transaksi&amp;nbsp;" style="rounded=0;whiteSpace=wrap;html=1;" parent="1" vertex="1">
          <mxGeometry x="1470" y="130" width="120" height="60" as="geometry" />
        </mxCell>
        <mxCell id="bpbYqcK5zOJnf0tQpgTc-14" value="dp_po" style="rounded=0;whiteSpace=wrap;html=1;" parent="1" vertex="1">
          <mxGeometry x="1710" y="130" width="120" height="60" as="geometry" />
        </mxCell>
        <mxCell id="bpbYqcK5zOJnf0tQpgTc-15" value="tunai" style="rounded=0;whiteSpace=wrap;html=1;" parent="1" vertex="1">
          <mxGeometry x="1830" y="130" width="120" height="60" as="geometry" />
        </mxCell>
        <mxCell id="bpbYqcK5zOJnf0tQpgTc-16" value="kredit&amp;nbsp;" style="rounded=0;whiteSpace=wrap;html=1;" parent="1" vertex="1">
          <mxGeometry x="1950" y="130" width="120" height="60" as="geometry" />
        </mxCell>
        <mxCell id="bpbYqcK5zOJnf0tQpgTc-17" value="b.transfer&amp;nbsp;" style="rounded=0;whiteSpace=wrap;html=1;" parent="1" vertex="1">
          <mxGeometry x="2070" y="130" width="120" height="60" as="geometry" />
        </mxCell>
        <mxCell id="bpbYqcK5zOJnf0tQpgTc-18" value="no_barang" style="rounded=0;whiteSpace=wrap;html=1;" parent="1" vertex="1">
          <mxGeometry x="30" y="190" width="120" height="60" as="geometry" />
        </mxCell>
        <mxCell id="bpbYqcK5zOJnf0tQpgTc-20" value="no_rekening&amp;nbsp;" style="rounded=0;whiteSpace=wrap;html=1;" parent="1" vertex="1">
          <mxGeometry x="150" y="190" width="120" height="60" as="geometry" />
        </mxCell>
        <mxCell id="bpbYqcK5zOJnf0tQpgTc-21" value="kode_item" style="rounded=0;whiteSpace=wrap;html=1;" parent="1" vertex="1">
          <mxGeometry x="270" y="190" width="120" height="60" as="geometry" />
        </mxCell>
        <mxCell id="bpbYqcK5zOJnf0tQpgTc-22" value="nama_barang" style="rounded=0;whiteSpace=wrap;html=1;" parent="1" vertex="1">
          <mxGeometry x="390" y="190" width="120" height="60" as="geometry" />
        </mxCell>
        <mxCell id="bpbYqcK5zOJnf0tQpgTc-23" value="jml_satuan" style="rounded=0;whiteSpace=wrap;html=1;" parent="1" vertex="1">
          <mxGeometry x="510" y="190" width="120" height="60" as="geometry" />
        </mxCell>
        <mxCell id="bpbYqcK5zOJnf0tQpgTc-24" value="pot(%)" style="rounded=0;whiteSpace=wrap;html=1;" parent="1" vertex="1">
          <mxGeometry x="630" y="190" width="120" height="60" as="geometry" />
        </mxCell>
        <mxCell id="bpbYqcK5zOJnf0tQpgTc-25" value="harga" style="rounded=0;whiteSpace=wrap;html=1;" parent="1" vertex="1">
          <mxGeometry x="750" y="190" width="120" height="60" as="geometry" />
        </mxCell>
        <mxCell id="bpbYqcK5zOJnf0tQpgTc-26" value="jml_beli" style="rounded=0;whiteSpace=wrap;html=1;" parent="1" vertex="1">
          <mxGeometry x="870" y="190" width="120" height="60" as="geometry" />
        </mxCell>
        <mxCell id="bpbYqcK5zOJnf0tQpgTc-27" value="sub_total" style="rounded=0;whiteSpace=wrap;html=1;" parent="1" vertex="1">
          <mxGeometry x="990" y="190" width="120" height="60" as="geometry" />
        </mxCell>
        <mxCell id="bpbYqcK5zOJnf0tQpgTc-28" value="total_akhir" style="rounded=0;whiteSpace=wrap;html=1;" parent="1" vertex="1">
          <mxGeometry x="1110" y="190" width="120" height="60" as="geometry" />
        </mxCell>
        <mxCell id="bpbYqcK5zOJnf0tQpgTc-31" value="nama_perusahaan&amp;nbsp;" style="rounded=0;whiteSpace=wrap;html=1;" parent="1" vertex="1">
          <mxGeometry x="150" y="330" width="120" height="60" as="geometry" />
        </mxCell>
        <mxCell id="bpbYqcK5zOJnf0tQpgTc-32" value="alamat_perusahaan&amp;nbsp;" style="rounded=0;whiteSpace=wrap;html=1;" parent="1" vertex="1">
          <mxGeometry x="270" y="330" width="120" height="60" as="geometry" />
        </mxCell>
        <mxCell id="bpbYqcK5zOJnf0tQpgTc-33" value="no_transaksi&amp;nbsp;" style="rounded=0;whiteSpace=wrap;html=1;" parent="1" vertex="1">
          <mxGeometry x="31" y="330" width="120" height="60" as="geometry" />
        </mxCell>
        <mxCell id="bpbYqcK5zOJnf0tQpgTc-34" value="tgl" style="rounded=0;whiteSpace=wrap;html=1;" parent="1" vertex="1">
          <mxGeometry x="390" y="330.18" width="120" height="60" as="geometry" />
        </mxCell>
        <mxCell id="bpbYqcK5zOJnf0tQpgTc-35" value="pelanggan" style="rounded=0;whiteSpace=wrap;html=1;" parent="1" vertex="1">
          <mxGeometry x="510" y="330" width="120" height="60" as="geometry" />
        </mxCell>
        <mxCell id="bpbYqcK5zOJnf0tQpgTc-37" value="alamat_pelangan" style="rounded=0;whiteSpace=wrap;html=1;" parent="1" vertex="1">
          <mxGeometry x="630" y="330" width="120" height="60" as="geometry" />
        </mxCell>
        <mxCell id="bpbYqcK5zOJnf0tQpgTc-38" value="penerima" style="rounded=0;whiteSpace=wrap;html=1;" parent="1" vertex="1">
          <mxGeometry x="871" y="330" width="120" height="60" as="geometry" />
        </mxCell>
        <mxCell id="bpbYqcK5zOJnf0tQpgTc-41" value="keterangan" style="rounded=0;whiteSpace=wrap;html=1;" parent="1" vertex="1">
          <mxGeometry x="1111" y="330" width="120" height="60" as="geometry" />
        </mxCell>
        <mxCell id="bpbYqcK5zOJnf0tQpgTc-42" value="terbilang" style="rounded=0;whiteSpace=wrap;html=1;" parent="1" vertex="1">
          <mxGeometry x="1231" y="330" width="120" height="60" as="geometry" />
        </mxCell>
        <mxCell id="bpbYqcK5zOJnf0tQpgTc-43" value="potongan" style="rounded=0;whiteSpace=wrap;html=1;" parent="1" vertex="1">
          <mxGeometry x="1351" y="330" width="120" height="60" as="geometry" />
        </mxCell>
        <mxCell id="bpbYqcK5zOJnf0tQpgTc-44" value="id_transaksi&amp;nbsp;" style="rounded=0;whiteSpace=wrap;html=1;" parent="1" vertex="1">
          <mxGeometry x="1471" y="330.18" width="120" height="60" as="geometry" />
        </mxCell>
        <mxCell id="bpbYqcK5zOJnf0tQpgTc-45" value="dp_po" style="rounded=0;whiteSpace=wrap;html=1;" parent="1" vertex="1">
          <mxGeometry x="1711" y="330.18" width="120" height="60" as="geometry" />
        </mxCell>
        <mxCell id="bpbYqcK5zOJnf0tQpgTc-46" value="tunai" style="rounded=0;whiteSpace=wrap;html=1;" parent="1" vertex="1">
          <mxGeometry x="1830" y="330" width="120" height="60" as="geometry" />
        </mxCell>
        <mxCell id="bpbYqcK5zOJnf0tQpgTc-47" value="kredit&amp;nbsp;" style="rounded=0;whiteSpace=wrap;html=1;" parent="1" vertex="1">
          <mxGeometry x="1950" y="330.18" width="120" height="60" as="geometry" />
        </mxCell>
        <mxCell id="bpbYqcK5zOJnf0tQpgTc-48" value="b.transfer&amp;nbsp;" style="rounded=0;whiteSpace=wrap;html=1;" parent="1" vertex="1">
          <mxGeometry x="2070" y="330" width="120" height="60" as="geometry" />
        </mxCell>
        <mxCell id="bpbYqcK5zOJnf0tQpgTc-51" value="no_rekening&amp;nbsp;" style="rounded=0;whiteSpace=wrap;html=1;" parent="1" vertex="1">
          <mxGeometry x="30" y="430" width="120" height="60" as="geometry" />
        </mxCell>
        <mxCell id="bpbYqcK5zOJnf0tQpgTc-52" value="no_barang" style="rounded=0;whiteSpace=wrap;html=1;" parent="1" vertex="1">
          <mxGeometry x="150" y="430" width="120" height="60" as="geometry" />
        </mxCell>
        <mxCell id="bpbYqcK5zOJnf0tQpgTc-53" value="kode_item" style="rounded=0;whiteSpace=wrap;html=1;" parent="1" vertex="1">
          <mxGeometry x="270" y="430" width="120" height="60" as="geometry" />
        </mxCell>
        <mxCell id="bpbYqcK5zOJnf0tQpgTc-54" value="nama_barang" style="rounded=0;whiteSpace=wrap;html=1;" parent="1" vertex="1">
          <mxGeometry x="390" y="430" width="120" height="60" as="geometry" />
        </mxCell>
        <mxCell id="bpbYqcK5zOJnf0tQpgTc-55" value="jml_satuan" style="rounded=0;whiteSpace=wrap;html=1;" parent="1" vertex="1">
          <mxGeometry x="510" y="430" width="120" height="60" as="geometry" />
        </mxCell>
        <mxCell id="bpbYqcK5zOJnf0tQpgTc-56" value="pot(%)" style="rounded=0;whiteSpace=wrap;html=1;" parent="1" vertex="1">
          <mxGeometry x="630" y="430" width="120" height="60" as="geometry" />
        </mxCell>
        <mxCell id="bpbYqcK5zOJnf0tQpgTc-57" value="harga" style="rounded=0;whiteSpace=wrap;html=1;" parent="1" vertex="1">
          <mxGeometry x="750" y="430" width="120" height="60" as="geometry" />
        </mxCell>
        <mxCell id="bpbYqcK5zOJnf0tQpgTc-59" value="jml_beli" style="rounded=0;whiteSpace=wrap;html=1;" parent="1" vertex="1">
          <mxGeometry x="31" y="537" width="120" height="60" as="geometry" />
        </mxCell>
        <mxCell id="bpbYqcK5zOJnf0tQpgTc-60" value="sub_total" style="rounded=0;whiteSpace=wrap;html=1;" parent="1" vertex="1">
          <mxGeometry x="151" y="537" width="120" height="60" as="geometry" />
        </mxCell>
        <mxCell id="bpbYqcK5zOJnf0tQpgTc-61" value="total_akhir" style="rounded=0;whiteSpace=wrap;html=1;" parent="1" vertex="1">
          <mxGeometry x="271" y="537" width="120" height="60" as="geometry" />
        </mxCell>
        <mxCell id="bpbYqcK5zOJnf0tQpgTc-62" value="Tabel kelompok atribut bernilai tunggal" style="text;html=1;strokeColor=none;fillColor=none;align=center;verticalAlign=middle;whiteSpace=wrap;rounded=0;" parent="1" vertex="1">
          <mxGeometry x="30" y="300" width="230" height="30" as="geometry" />
        </mxCell>
        <mxCell id="bpbYqcK5zOJnf0tQpgTc-63" value="Tabel kelompok atribut bernilai ganda" style="text;html=1;strokeColor=none;fillColor=none;align=center;verticalAlign=middle;whiteSpace=wrap;rounded=0;" parent="1" vertex="1">
          <mxGeometry x="30" y="400" width="230" height="30" as="geometry" />
        </mxCell>
        <mxCell id="bpbYqcK5zOJnf0tQpgTc-64" value="Tabel kelompok atribut bernilai turunan" style="text;html=1;strokeColor=none;fillColor=none;align=center;verticalAlign=middle;whiteSpace=wrap;rounded=0;" parent="1" vertex="1">
          <mxGeometry x="30" y="507" width="230" height="30" as="geometry" />
        </mxCell>
        <mxCell id="bpbYqcK5zOJnf0tQpgTc-66" value="nama_perusahaan&amp;nbsp;" style="rounded=0;whiteSpace=wrap;html=1;" parent="1" vertex="1">
          <mxGeometry x="150" y="760" width="120" height="60" as="geometry" />
        </mxCell>
        <mxCell id="bpbYqcK5zOJnf0tQpgTc-67" value="alamat_perusahaan&amp;nbsp;" style="rounded=0;whiteSpace=wrap;html=1;" parent="1" vertex="1">
          <mxGeometry x="270" y="760" width="120" height="60" as="geometry" />
        </mxCell>
        <mxCell id="DfzfDWxTVEacT_CZlP5h-1" style="edgeStyle=orthogonalEdgeStyle;rounded=0;orthogonalLoop=1;jettySize=auto;html=1;entryX=0.5;entryY=0;entryDx=0;entryDy=0;" edge="1" parent="1" source="bpbYqcK5zOJnf0tQpgTc-68" target="bpbYqcK5zOJnf0tQpgTc-66">
          <mxGeometry relative="1" as="geometry" />
        </mxCell>
        <mxCell id="DfzfDWxTVEacT_CZlP5h-2" style="edgeStyle=orthogonalEdgeStyle;rounded=0;orthogonalLoop=1;jettySize=auto;html=1;entryX=0.5;entryY=0;entryDx=0;entryDy=0;" edge="1" parent="1" source="bpbYqcK5zOJnf0tQpgTc-68" target="bpbYqcK5zOJnf0tQpgTc-67">
          <mxGeometry relative="1" as="geometry">
            <Array as="points">
              <mxPoint x="80" y="720" />
              <mxPoint x="330" y="720" />
            </Array>
          </mxGeometry>
        </mxCell>
        <mxCell id="DfzfDWxTVEacT_CZlP5h-3" style="edgeStyle=orthogonalEdgeStyle;rounded=0;orthogonalLoop=1;jettySize=auto;html=1;entryX=0.5;entryY=0;entryDx=0;entryDy=0;" edge="1" parent="1" source="bpbYqcK5zOJnf0tQpgTc-68" target="bpbYqcK5zOJnf0tQpgTc-69">
          <mxGeometry relative="1" as="geometry">
            <Array as="points">
              <mxPoint x="70" y="700" />
              <mxPoint x="450" y="700" />
            </Array>
          </mxGeometry>
        </mxCell>
        <mxCell id="DfzfDWxTVEacT_CZlP5h-4" style="edgeStyle=orthogonalEdgeStyle;rounded=0;orthogonalLoop=1;jettySize=auto;html=1;entryX=0.5;entryY=0;entryDx=0;entryDy=0;" edge="1" parent="1" source="bpbYqcK5zOJnf0tQpgTc-68" target="bpbYqcK5zOJnf0tQpgTc-73">
          <mxGeometry relative="1" as="geometry">
            <Array as="points">
              <mxPoint x="60" y="680" />
              <mxPoint x="570" y="680" />
            </Array>
          </mxGeometry>
        </mxCell>
        <mxCell id="bpbYqcK5zOJnf0tQpgTc-68" value="no_transaksi&amp;nbsp;" style="rounded=0;whiteSpace=wrap;html=1;fillColor=#d5e8d4;strokeColor=#82b366;" parent="1" vertex="1">
          <mxGeometry x="30" y="760" width="120" height="60" as="geometry" />
        </mxCell>
        <mxCell id="bpbYqcK5zOJnf0tQpgTc-69" value="tgl" style="rounded=0;whiteSpace=wrap;html=1;" parent="1" vertex="1">
          <mxGeometry x="390" y="760" width="120" height="60" as="geometry" />
        </mxCell>
        <mxCell id="bpbYqcK5zOJnf0tQpgTc-73" value="no_rekening&amp;nbsp;" style="rounded=0;whiteSpace=wrap;html=1;" parent="1" vertex="1">
          <mxGeometry x="510" y="760" width="120" height="60" as="geometry" />
        </mxCell>
        <mxCell id="bpbYqcK5zOJnf0tQpgTc-74" value="hormat_kami" style="rounded=0;whiteSpace=wrap;html=1;" parent="1" vertex="1">
          <mxGeometry x="991" y="330" width="120" height="60" as="geometry" />
        </mxCell>
        <mxCell id="bpbYqcK5zOJnf0tQpgTc-130" value="total" style="rounded=0;whiteSpace=wrap;html=1;" parent="1" vertex="1">
          <mxGeometry x="1230" y="190" width="120" height="60" as="geometry" />
        </mxCell>
        <mxCell id="feltQatrJIaa5L92mKcE-1" value="total" style="rounded=0;whiteSpace=wrap;html=1;" parent="1" vertex="1">
          <mxGeometry x="390" y="537" width="120" height="60" as="geometry" />
        </mxCell>
        <mxCell id="feltQatrJIaa5L92mKcE-2" value="kembali" style="rounded=0;whiteSpace=wrap;html=1;" parent="1" vertex="1">
          <mxGeometry x="510" y="537" width="120" height="60" as="geometry" />
        </mxCell>
        <mxCell id="GXvbKSVf6ufCUX1Tdscx-1" value="kembali" style="rounded=0;whiteSpace=wrap;html=1;" parent="1" vertex="1">
          <mxGeometry x="1350" y="190" width="120" height="60" as="geometry" />
        </mxCell>
        <mxCell id="GXvbKSVf6ufCUX1Tdscx-2" value="keteragan atribut tunggal :&lt;br&gt;&lt;br&gt;nama_perusahaan, alamat_perusahaan, tgl, pelanggan, a no_rekening tergantung pada &lt;font color=&quot;#00cc66&quot;&gt;no_transaksi&amp;nbsp;&lt;/font&gt;&lt;font color=&quot;#00cc66&quot;&gt;(pk)&lt;/font&gt;&amp;nbsp;" style="text;html=1;strokeColor=none;fillColor=none;align=center;verticalAlign=middle;whiteSpace=wrap;rounded=0;" parent="1" vertex="1">
          <mxGeometry x="630" y="760" width="540" height="60" as="geometry" />
        </mxCell>
        <mxCell id="GXvbKSVf6ufCUX1Tdscx-3" value="keteragan atribut tunggal :&lt;br&gt;&lt;br&gt;pelanggan, alamat_pelanggan, penerima, bea_kirim tergantung pada&amp;nbsp;&lt;br&gt;&lt;font color=&quot;#00cc66&quot;&gt;id_pegiriman(PK)&lt;br&gt;&lt;br&gt;&lt;/font&gt;hormat_kami tergantung pada &lt;font color=&quot;#00cc66&quot;&gt;no_transaksi dan id_pengirim(PK)&amp;nbsp;&lt;br&gt;&lt;/font&gt;" style="text;html=1;strokeColor=none;fillColor=none;align=center;verticalAlign=middle;whiteSpace=wrap;rounded=0;" parent="1" vertex="1">
          <mxGeometry x="871" y="885" width="480" height="90" as="geometry" />
        </mxCell>
        <mxCell id="GXvbKSVf6ufCUX1Tdscx-14" value="keteragan atribut tunggal :&lt;br&gt;&lt;br&gt;dp_po, tunai, kredit, b_transfer, potogan, terbilang tergantung pada &lt;font color=&quot;#00cc66&quot;&gt;id_transaksi(PK)&lt;/font&gt;&lt;br&gt;keteragan bergantung pada &lt;font color=&quot;#00cc66&quot;&gt;no_transaksi dan id_transaksi(PK)&lt;/font&gt;" style="text;html=1;strokeColor=none;fillColor=none;align=center;verticalAlign=middle;whiteSpace=wrap;rounded=0;" parent="1" vertex="1">
          <mxGeometry x="1110" y="1081.5" width="460" height="69" as="geometry" />
        </mxCell>
        <mxCell id="GXvbKSVf6ufCUX1Tdscx-15" value="pelanggan" style="rounded=0;whiteSpace=wrap;html=1;" parent="1" vertex="1">
          <mxGeometry x="510" y="130" width="120" height="60" as="geometry" />
        </mxCell>
        <mxCell id="GXvbKSVf6ufCUX1Tdscx-132" value="id_pegiriman" style="rounded=0;whiteSpace=wrap;html=1;" parent="1" vertex="1">
          <mxGeometry x="750" y="330" width="120" height="60" as="geometry" />
        </mxCell>
        <mxCell id="GXvbKSVf6ufCUX1Tdscx-133" value="id_pegiriman" style="rounded=0;whiteSpace=wrap;html=1;" parent="1" vertex="1">
          <mxGeometry x="750" y="130" width="120" height="60" as="geometry" />
        </mxCell>
        <mxCell id="GXvbKSVf6ufCUX1Tdscx-134" value="bea_kirim" style="rounded=0;whiteSpace=wrap;html=1;" parent="1" vertex="1">
          <mxGeometry x="1590" y="130" width="120" height="60" as="geometry" />
        </mxCell>
        <mxCell id="GXvbKSVf6ufCUX1Tdscx-135" value="bea_kirim" style="rounded=0;whiteSpace=wrap;html=1;" parent="1" vertex="1">
          <mxGeometry x="1591" y="330" width="120" height="60" as="geometry" />
        </mxCell>
        <mxCell id="DfzfDWxTVEacT_CZlP5h-13" style="edgeStyle=orthogonalEdgeStyle;rounded=0;orthogonalLoop=1;jettySize=auto;html=1;entryX=0.5;entryY=0;entryDx=0;entryDy=0;" edge="1" parent="1" source="DfzfDWxTVEacT_CZlP5h-5" target="DfzfDWxTVEacT_CZlP5h-9">
          <mxGeometry relative="1" as="geometry">
            <Array as="points">
              <mxPoint x="212" y="840" />
              <mxPoint x="571" y="840" />
            </Array>
          </mxGeometry>
        </mxCell>
        <mxCell id="DfzfDWxTVEacT_CZlP5h-14" style="edgeStyle=orthogonalEdgeStyle;rounded=0;orthogonalLoop=1;jettySize=auto;html=1;entryX=0.5;entryY=1;entryDx=0;entryDy=0;" edge="1" parent="1" source="DfzfDWxTVEacT_CZlP5h-5" target="DfzfDWxTVEacT_CZlP5h-8">
          <mxGeometry relative="1" as="geometry">
            <Array as="points">
              <mxPoint x="212" y="980" />
              <mxPoint x="332" y="980" />
            </Array>
          </mxGeometry>
        </mxCell>
        <mxCell id="DfzfDWxTVEacT_CZlP5h-15" style="edgeStyle=orthogonalEdgeStyle;rounded=0;orthogonalLoop=1;jettySize=auto;html=1;entryX=0.5;entryY=1;entryDx=0;entryDy=0;" edge="1" parent="1" source="DfzfDWxTVEacT_CZlP5h-5" target="DfzfDWxTVEacT_CZlP5h-7">
          <mxGeometry relative="1" as="geometry">
            <Array as="points">
              <mxPoint x="201" y="990" />
              <mxPoint x="451" y="990" />
            </Array>
          </mxGeometry>
        </mxCell>
        <mxCell id="DfzfDWxTVEacT_CZlP5h-16" style="edgeStyle=orthogonalEdgeStyle;rounded=0;orthogonalLoop=1;jettySize=auto;html=1;entryX=0.5;entryY=1;entryDx=0;entryDy=0;" edge="1" parent="1" source="DfzfDWxTVEacT_CZlP5h-5" target="DfzfDWxTVEacT_CZlP5h-11">
          <mxGeometry relative="1" as="geometry">
            <Array as="points">
              <mxPoint x="191" y="1000" />
              <mxPoint x="691" y="1000" />
            </Array>
          </mxGeometry>
        </mxCell>
        <mxCell id="DfzfDWxTVEacT_CZlP5h-17" style="edgeStyle=orthogonalEdgeStyle;rounded=0;orthogonalLoop=1;jettySize=auto;html=1;entryX=0.5;entryY=1;entryDx=0;entryDy=0;" edge="1" parent="1" source="DfzfDWxTVEacT_CZlP5h-5" target="DfzfDWxTVEacT_CZlP5h-10">
          <mxGeometry relative="1" as="geometry">
            <Array as="points">
              <mxPoint x="181" y="1010" />
              <mxPoint x="811" y="1010" />
            </Array>
          </mxGeometry>
        </mxCell>
        <mxCell id="DfzfDWxTVEacT_CZlP5h-5" value="id_pegiriman" style="rounded=0;whiteSpace=wrap;html=1;fillColor=#dae8fc;strokeColor=#6c8ebf;" vertex="1" parent="1">
          <mxGeometry x="152" y="900" width="120" height="60" as="geometry" />
        </mxCell>
        <mxCell id="DfzfDWxTVEacT_CZlP5h-12" style="edgeStyle=orthogonalEdgeStyle;rounded=0;orthogonalLoop=1;jettySize=auto;html=1;entryX=0.5;entryY=0;entryDx=0;entryDy=0;" edge="1" parent="1" source="DfzfDWxTVEacT_CZlP5h-6" target="DfzfDWxTVEacT_CZlP5h-9">
          <mxGeometry relative="1" as="geometry">
            <Array as="points">
              <mxPoint x="92" y="840" />
              <mxPoint x="571" y="840" />
            </Array>
          </mxGeometry>
        </mxCell>
        <mxCell id="DfzfDWxTVEacT_CZlP5h-6" value="no_transaksi&amp;nbsp;" style="rounded=0;whiteSpace=wrap;html=1;fillColor=#d5e8d4;strokeColor=#82b366;" vertex="1" parent="1">
          <mxGeometry x="32" y="900" width="120" height="60" as="geometry" />
        </mxCell>
        <mxCell id="DfzfDWxTVEacT_CZlP5h-7" value="alamat_pelangan" style="rounded=0;whiteSpace=wrap;html=1;" vertex="1" parent="1">
          <mxGeometry x="391" y="900" width="120" height="60" as="geometry" />
        </mxCell>
        <mxCell id="DfzfDWxTVEacT_CZlP5h-8" value="pelanggan" style="rounded=0;whiteSpace=wrap;html=1;" vertex="1" parent="1">
          <mxGeometry x="272" y="900" width="120" height="60" as="geometry" />
        </mxCell>
        <mxCell id="DfzfDWxTVEacT_CZlP5h-9" value="hormat_kami" style="rounded=0;whiteSpace=wrap;html=1;" vertex="1" parent="1">
          <mxGeometry x="511" y="900" width="120" height="60" as="geometry" />
        </mxCell>
        <mxCell id="DfzfDWxTVEacT_CZlP5h-10" value="bea_kirim" style="rounded=0;whiteSpace=wrap;html=1;" vertex="1" parent="1">
          <mxGeometry x="751" y="900" width="120" height="60" as="geometry" />
        </mxCell>
        <mxCell id="DfzfDWxTVEacT_CZlP5h-11" value="penerima" style="rounded=0;whiteSpace=wrap;html=1;" vertex="1" parent="1">
          <mxGeometry x="631" y="900" width="120" height="60" as="geometry" />
        </mxCell>
        <mxCell id="DfzfDWxTVEacT_CZlP5h-33" style="edgeStyle=orthogonalEdgeStyle;rounded=0;orthogonalLoop=1;jettySize=auto;html=1;entryX=0.5;entryY=0;entryDx=0;entryDy=0;" edge="1" parent="1" source="DfzfDWxTVEacT_CZlP5h-18" target="DfzfDWxTVEacT_CZlP5h-25">
          <mxGeometry relative="1" as="geometry">
            <Array as="points">
              <mxPoint x="90" y="1040" />
              <mxPoint x="929" y="1040" />
            </Array>
          </mxGeometry>
        </mxCell>
        <mxCell id="DfzfDWxTVEacT_CZlP5h-18" value="no_transaksi&amp;nbsp;" style="rounded=0;whiteSpace=wrap;html=1;fillColor=#d5e8d4;strokeColor=#82b366;" vertex="1" parent="1">
          <mxGeometry x="30" y="1086" width="120" height="60" as="geometry" />
        </mxCell>
        <mxCell id="DfzfDWxTVEacT_CZlP5h-27" style="edgeStyle=orthogonalEdgeStyle;rounded=0;orthogonalLoop=1;jettySize=auto;html=1;entryX=0.5;entryY=1;entryDx=0;entryDy=0;" edge="1" parent="1" source="DfzfDWxTVEacT_CZlP5h-19" target="DfzfDWxTVEacT_CZlP5h-20">
          <mxGeometry relative="1" as="geometry">
            <Array as="points">
              <mxPoint x="229" y="1166" />
              <mxPoint x="330" y="1166" />
            </Array>
          </mxGeometry>
        </mxCell>
        <mxCell id="DfzfDWxTVEacT_CZlP5h-28" style="edgeStyle=orthogonalEdgeStyle;rounded=0;orthogonalLoop=1;jettySize=auto;html=1;entryX=0.5;entryY=1;entryDx=0;entryDy=0;" edge="1" parent="1" source="DfzfDWxTVEacT_CZlP5h-19" target="DfzfDWxTVEacT_CZlP5h-21">
          <mxGeometry relative="1" as="geometry">
            <Array as="points">
              <mxPoint x="219" y="1180" />
              <mxPoint x="450" y="1180" />
            </Array>
          </mxGeometry>
        </mxCell>
        <mxCell id="DfzfDWxTVEacT_CZlP5h-29" style="edgeStyle=orthogonalEdgeStyle;rounded=0;orthogonalLoop=1;jettySize=auto;html=1;entryX=0.5;entryY=1;entryDx=0;entryDy=0;" edge="1" parent="1" source="DfzfDWxTVEacT_CZlP5h-19" target="DfzfDWxTVEacT_CZlP5h-22">
          <mxGeometry relative="1" as="geometry">
            <Array as="points">
              <mxPoint x="209" y="1190" />
              <mxPoint x="570" y="1190" />
            </Array>
          </mxGeometry>
        </mxCell>
        <mxCell id="DfzfDWxTVEacT_CZlP5h-30" style="edgeStyle=orthogonalEdgeStyle;rounded=0;orthogonalLoop=1;jettySize=auto;html=1;entryX=0.5;entryY=1;entryDx=0;entryDy=0;" edge="1" parent="1" source="DfzfDWxTVEacT_CZlP5h-19" target="DfzfDWxTVEacT_CZlP5h-23">
          <mxGeometry relative="1" as="geometry">
            <Array as="points">
              <mxPoint x="199" y="1200" />
              <mxPoint x="690" y="1200" />
            </Array>
          </mxGeometry>
        </mxCell>
        <mxCell id="DfzfDWxTVEacT_CZlP5h-31" style="edgeStyle=orthogonalEdgeStyle;rounded=0;orthogonalLoop=1;jettySize=auto;html=1;entryX=0.5;entryY=0;entryDx=0;entryDy=0;" edge="1" parent="1" source="DfzfDWxTVEacT_CZlP5h-19" target="DfzfDWxTVEacT_CZlP5h-25">
          <mxGeometry relative="1" as="geometry">
            <Array as="points">
              <mxPoint x="210" y="1040" />
              <mxPoint x="929" y="1040" />
            </Array>
          </mxGeometry>
        </mxCell>
        <mxCell id="DfzfDWxTVEacT_CZlP5h-34" style="edgeStyle=orthogonalEdgeStyle;rounded=0;orthogonalLoop=1;jettySize=auto;html=1;entryX=0.5;entryY=1;entryDx=0;entryDy=0;" edge="1" parent="1" source="DfzfDWxTVEacT_CZlP5h-19" target="DfzfDWxTVEacT_CZlP5h-24">
          <mxGeometry relative="1" as="geometry">
            <Array as="points">
              <mxPoint x="189" y="1210" />
              <mxPoint x="809" y="1210" />
            </Array>
          </mxGeometry>
        </mxCell>
        <mxCell id="DfzfDWxTVEacT_CZlP5h-35" style="edgeStyle=orthogonalEdgeStyle;rounded=0;orthogonalLoop=1;jettySize=auto;html=1;entryX=0.5;entryY=1;entryDx=0;entryDy=0;" edge="1" parent="1" source="DfzfDWxTVEacT_CZlP5h-19" target="DfzfDWxTVEacT_CZlP5h-26">
          <mxGeometry relative="1" as="geometry">
            <Array as="points">
              <mxPoint x="179" y="1220" />
              <mxPoint x="1049" y="1220" />
            </Array>
          </mxGeometry>
        </mxCell>
        <mxCell id="DfzfDWxTVEacT_CZlP5h-19" value="id_transaksi&amp;nbsp;" style="rounded=0;whiteSpace=wrap;html=1;fillColor=#dae8fc;strokeColor=#6c8ebf;" vertex="1" parent="1">
          <mxGeometry x="150" y="1086" width="120" height="60" as="geometry" />
        </mxCell>
        <mxCell id="DfzfDWxTVEacT_CZlP5h-20" value="dp_po" style="rounded=0;whiteSpace=wrap;html=1;" vertex="1" parent="1">
          <mxGeometry x="270" y="1086" width="120" height="60" as="geometry" />
        </mxCell>
        <mxCell id="DfzfDWxTVEacT_CZlP5h-21" value="tunai" style="rounded=0;whiteSpace=wrap;html=1;" vertex="1" parent="1">
          <mxGeometry x="390" y="1086" width="120" height="60" as="geometry" />
        </mxCell>
        <mxCell id="DfzfDWxTVEacT_CZlP5h-22" value="kredit&amp;nbsp;" style="rounded=0;whiteSpace=wrap;html=1;" vertex="1" parent="1">
          <mxGeometry x="510" y="1086" width="120" height="60" as="geometry" />
        </mxCell>
        <mxCell id="DfzfDWxTVEacT_CZlP5h-23" value="b.transfer&amp;nbsp;" style="rounded=0;whiteSpace=wrap;html=1;" vertex="1" parent="1">
          <mxGeometry x="630" y="1086" width="120" height="60" as="geometry" />
        </mxCell>
        <mxCell id="DfzfDWxTVEacT_CZlP5h-24" value="potongan" style="rounded=0;whiteSpace=wrap;html=1;" vertex="1" parent="1">
          <mxGeometry x="749" y="1086" width="120" height="60" as="geometry" />
        </mxCell>
        <mxCell id="DfzfDWxTVEacT_CZlP5h-25" value="keterangan" style="rounded=0;whiteSpace=wrap;html=1;" vertex="1" parent="1">
          <mxGeometry x="869" y="1086" width="120" height="60" as="geometry" />
        </mxCell>
        <mxCell id="DfzfDWxTVEacT_CZlP5h-26" value="terbilang" style="rounded=0;whiteSpace=wrap;html=1;" vertex="1" parent="1">
          <mxGeometry x="989" y="1086" width="120" height="60" as="geometry" />
        </mxCell>
        <mxCell id="DfzfDWxTVEacT_CZlP5h-68" style="edgeStyle=orthogonalEdgeStyle;rounded=0;orthogonalLoop=1;jettySize=auto;html=1;entryX=0.5;entryY=0;entryDx=0;entryDy=0;" edge="1" parent="1" source="DfzfDWxTVEacT_CZlP5h-36" target="DfzfDWxTVEacT_CZlP5h-53">
          <mxGeometry relative="1" as="geometry">
            <Array as="points">
              <mxPoint x="92" y="1250" />
              <mxPoint x="1051" y="1250" />
            </Array>
          </mxGeometry>
        </mxCell>
        <mxCell id="DfzfDWxTVEacT_CZlP5h-69" style="edgeStyle=orthogonalEdgeStyle;rounded=0;orthogonalLoop=1;jettySize=auto;html=1;entryX=0.5;entryY=0;entryDx=0;entryDy=0;" edge="1" parent="1" source="DfzfDWxTVEacT_CZlP5h-36" target="DfzfDWxTVEacT_CZlP5h-54">
          <mxGeometry relative="1" as="geometry">
            <Array as="points">
              <mxPoint x="92" y="1250" />
              <mxPoint x="1171" y="1250" />
            </Array>
          </mxGeometry>
        </mxCell>
        <mxCell id="DfzfDWxTVEacT_CZlP5h-70" style="edgeStyle=orthogonalEdgeStyle;rounded=0;orthogonalLoop=1;jettySize=auto;html=1;entryX=0.5;entryY=0;entryDx=0;entryDy=0;" edge="1" parent="1" source="DfzfDWxTVEacT_CZlP5h-36" target="DfzfDWxTVEacT_CZlP5h-55">
          <mxGeometry relative="1" as="geometry">
            <Array as="points">
              <mxPoint x="92" y="1250" />
              <mxPoint x="1291" y="1250" />
            </Array>
          </mxGeometry>
        </mxCell>
        <mxCell id="DfzfDWxTVEacT_CZlP5h-71" style="edgeStyle=orthogonalEdgeStyle;rounded=0;orthogonalLoop=1;jettySize=auto;html=1;entryX=0.5;entryY=0;entryDx=0;entryDy=0;" edge="1" parent="1" source="DfzfDWxTVEacT_CZlP5h-36" target="DfzfDWxTVEacT_CZlP5h-57">
          <mxGeometry relative="1" as="geometry">
            <Array as="points">
              <mxPoint x="92" y="1250" />
              <mxPoint x="1411" y="1250" />
            </Array>
          </mxGeometry>
        </mxCell>
        <mxCell id="DfzfDWxTVEacT_CZlP5h-36" value="no_transaksi&amp;nbsp;" style="rounded=0;whiteSpace=wrap;html=1;fillColor=#d5e8d4;strokeColor=#82b366;" vertex="1" parent="1">
          <mxGeometry x="32" y="1298.5" width="120" height="60" as="geometry" />
        </mxCell>
        <mxCell id="DfzfDWxTVEacT_CZlP5h-58" style="edgeStyle=orthogonalEdgeStyle;rounded=0;orthogonalLoop=1;jettySize=auto;html=1;entryX=0.5;entryY=1;entryDx=0;entryDy=0;" edge="1" parent="1" source="DfzfDWxTVEacT_CZlP5h-37" target="DfzfDWxTVEacT_CZlP5h-38">
          <mxGeometry relative="1" as="geometry">
            <Array as="points">
              <mxPoint x="241" y="1378" />
              <mxPoint x="331" y="1378" />
            </Array>
          </mxGeometry>
        </mxCell>
        <mxCell id="DfzfDWxTVEacT_CZlP5h-59" style="edgeStyle=orthogonalEdgeStyle;rounded=0;orthogonalLoop=1;jettySize=auto;html=1;entryX=0.5;entryY=1;entryDx=0;entryDy=0;" edge="1" parent="1" source="DfzfDWxTVEacT_CZlP5h-37" target="DfzfDWxTVEacT_CZlP5h-49">
          <mxGeometry relative="1" as="geometry">
            <Array as="points">
              <mxPoint x="231" y="1390" />
              <mxPoint x="451" y="1390" />
            </Array>
          </mxGeometry>
        </mxCell>
        <mxCell id="DfzfDWxTVEacT_CZlP5h-60" style="edgeStyle=orthogonalEdgeStyle;rounded=0;orthogonalLoop=1;jettySize=auto;html=1;entryX=0.5;entryY=1;entryDx=0;entryDy=0;" edge="1" parent="1" source="DfzfDWxTVEacT_CZlP5h-37" target="DfzfDWxTVEacT_CZlP5h-50">
          <mxGeometry relative="1" as="geometry">
            <Array as="points">
              <mxPoint x="221" y="1400" />
              <mxPoint x="571" y="1400" />
            </Array>
          </mxGeometry>
        </mxCell>
        <mxCell id="DfzfDWxTVEacT_CZlP5h-61" style="edgeStyle=orthogonalEdgeStyle;rounded=0;orthogonalLoop=1;jettySize=auto;html=1;entryX=0.5;entryY=1;entryDx=0;entryDy=0;" edge="1" parent="1" source="DfzfDWxTVEacT_CZlP5h-37" target="DfzfDWxTVEacT_CZlP5h-51">
          <mxGeometry relative="1" as="geometry">
            <Array as="points">
              <mxPoint x="212" y="1410" />
              <mxPoint x="691" y="1410" />
            </Array>
          </mxGeometry>
        </mxCell>
        <mxCell id="DfzfDWxTVEacT_CZlP5h-62" style="edgeStyle=orthogonalEdgeStyle;rounded=0;orthogonalLoop=1;jettySize=auto;html=1;entryX=0.5;entryY=1;entryDx=0;entryDy=0;" edge="1" parent="1" source="DfzfDWxTVEacT_CZlP5h-37" target="DfzfDWxTVEacT_CZlP5h-52">
          <mxGeometry relative="1" as="geometry">
            <Array as="points">
              <mxPoint x="201" y="1420" />
              <mxPoint x="811" y="1420" />
            </Array>
          </mxGeometry>
        </mxCell>
        <mxCell id="DfzfDWxTVEacT_CZlP5h-63" style="edgeStyle=orthogonalEdgeStyle;rounded=0;orthogonalLoop=1;jettySize=auto;html=1;entryX=0.5;entryY=1;entryDx=0;entryDy=0;" edge="1" parent="1" source="DfzfDWxTVEacT_CZlP5h-37" target="DfzfDWxTVEacT_CZlP5h-56">
          <mxGeometry relative="1" as="geometry">
            <Array as="points">
              <mxPoint x="191" y="1430" />
              <mxPoint x="931" y="1430" />
            </Array>
          </mxGeometry>
        </mxCell>
        <mxCell id="DfzfDWxTVEacT_CZlP5h-64" style="edgeStyle=orthogonalEdgeStyle;rounded=0;orthogonalLoop=1;jettySize=auto;html=1;entryX=0.5;entryY=0;entryDx=0;entryDy=0;" edge="1" parent="1" source="DfzfDWxTVEacT_CZlP5h-37" target="DfzfDWxTVEacT_CZlP5h-53">
          <mxGeometry relative="1" as="geometry">
            <Array as="points">
              <mxPoint x="212" y="1250" />
              <mxPoint x="1051" y="1250" />
            </Array>
          </mxGeometry>
        </mxCell>
        <mxCell id="DfzfDWxTVEacT_CZlP5h-65" style="edgeStyle=orthogonalEdgeStyle;rounded=0;orthogonalLoop=1;jettySize=auto;html=1;entryX=0.5;entryY=0;entryDx=0;entryDy=0;" edge="1" parent="1" source="DfzfDWxTVEacT_CZlP5h-37" target="DfzfDWxTVEacT_CZlP5h-54">
          <mxGeometry relative="1" as="geometry">
            <Array as="points">
              <mxPoint x="212" y="1250" />
              <mxPoint x="1171" y="1250" />
            </Array>
          </mxGeometry>
        </mxCell>
        <mxCell id="DfzfDWxTVEacT_CZlP5h-66" style="edgeStyle=orthogonalEdgeStyle;rounded=0;orthogonalLoop=1;jettySize=auto;html=1;entryX=0.5;entryY=0;entryDx=0;entryDy=0;" edge="1" parent="1" source="DfzfDWxTVEacT_CZlP5h-37" target="DfzfDWxTVEacT_CZlP5h-55">
          <mxGeometry relative="1" as="geometry">
            <Array as="points">
              <mxPoint x="212" y="1250" />
              <mxPoint x="1291" y="1250" />
            </Array>
          </mxGeometry>
        </mxCell>
        <mxCell id="DfzfDWxTVEacT_CZlP5h-67" style="edgeStyle=orthogonalEdgeStyle;rounded=0;orthogonalLoop=1;jettySize=auto;html=1;entryX=0.5;entryY=0;entryDx=0;entryDy=0;" edge="1" parent="1" source="DfzfDWxTVEacT_CZlP5h-37" target="DfzfDWxTVEacT_CZlP5h-57">
          <mxGeometry relative="1" as="geometry">
            <Array as="points">
              <mxPoint x="212" y="1250" />
              <mxPoint x="1411" y="1250" />
            </Array>
          </mxGeometry>
        </mxCell>
        <mxCell id="DfzfDWxTVEacT_CZlP5h-37" value="kode_item" style="rounded=0;whiteSpace=wrap;html=1;fillColor=#dae8fc;strokeColor=#6c8ebf;" vertex="1" parent="1">
          <mxGeometry x="152" y="1298.5" width="120" height="60" as="geometry" />
        </mxCell>
        <mxCell id="DfzfDWxTVEacT_CZlP5h-38" value="no_barang" style="rounded=0;whiteSpace=wrap;html=1;" vertex="1" parent="1">
          <mxGeometry x="271" y="1298.5" width="120" height="60" as="geometry" />
        </mxCell>
        <mxCell id="DfzfDWxTVEacT_CZlP5h-49" value="nama_barang" style="rounded=0;whiteSpace=wrap;html=1;" vertex="1" parent="1">
          <mxGeometry x="391" y="1298.5" width="120" height="60" as="geometry" />
        </mxCell>
        <mxCell id="DfzfDWxTVEacT_CZlP5h-50" value="jml_satuan" style="rounded=0;whiteSpace=wrap;html=1;" vertex="1" parent="1">
          <mxGeometry x="511" y="1298.5" width="120" height="60" as="geometry" />
        </mxCell>
        <mxCell id="DfzfDWxTVEacT_CZlP5h-51" value="pot(%)" style="rounded=0;whiteSpace=wrap;html=1;" vertex="1" parent="1">
          <mxGeometry x="631" y="1298.5" width="120" height="60" as="geometry" />
        </mxCell>
        <mxCell id="DfzfDWxTVEacT_CZlP5h-52" value="harga" style="rounded=0;whiteSpace=wrap;html=1;" vertex="1" parent="1">
          <mxGeometry x="751" y="1298.5" width="120" height="60" as="geometry" />
        </mxCell>
        <mxCell id="DfzfDWxTVEacT_CZlP5h-53" value="jml_beli" style="rounded=0;whiteSpace=wrap;html=1;" vertex="1" parent="1">
          <mxGeometry x="991" y="1298.5" width="120" height="60" as="geometry" />
        </mxCell>
        <mxCell id="DfzfDWxTVEacT_CZlP5h-54" value="sub_total" style="rounded=0;whiteSpace=wrap;html=1;" vertex="1" parent="1">
          <mxGeometry x="1111" y="1298.5" width="120" height="60" as="geometry" />
        </mxCell>
        <mxCell id="DfzfDWxTVEacT_CZlP5h-55" value="total_akhir" style="rounded=0;whiteSpace=wrap;html=1;" vertex="1" parent="1">
          <mxGeometry x="1231" y="1298.5" width="120" height="60" as="geometry" />
        </mxCell>
        <mxCell id="DfzfDWxTVEacT_CZlP5h-56" value="total" style="rounded=0;whiteSpace=wrap;html=1;" vertex="1" parent="1">
          <mxGeometry x="871" y="1298.5" width="120" height="60" as="geometry" />
        </mxCell>
        <mxCell id="DfzfDWxTVEacT_CZlP5h-57" value="kembali" style="rounded=0;whiteSpace=wrap;html=1;" vertex="1" parent="1">
          <mxGeometry x="1351" y="1298.5" width="120" height="60" as="geometry" />
        </mxCell>
        <mxCell id="DfzfDWxTVEacT_CZlP5h-72" value="keteragan atribut tunggal :&lt;br&gt;&lt;br&gt;no_barang, nama_barang, jml_satuan, pot(%), harga, total terbilang tergantung pada &lt;font color=&quot;#00cc66&quot;&gt;kode_item(PK)&lt;/font&gt;&lt;br&gt;jml_beli, sub_total, total_akhir, kembali bergantung pada &lt;font color=&quot;#00cc66&quot;&gt;no_transaksi dan kode_item(PK)&lt;/font&gt;" style="text;html=1;strokeColor=none;fillColor=none;align=center;verticalAlign=middle;whiteSpace=wrap;rounded=0;" vertex="1" parent="1">
          <mxGeometry x="1471" y="1286.5" width="530" height="84" as="geometry" />
        </mxCell>
        <mxCell id="DfzfDWxTVEacT_CZlP5h-73" value="nama_perusahaan&amp;nbsp;" style="rounded=0;whiteSpace=wrap;html=1;" vertex="1" parent="1">
          <mxGeometry x="152" y="1550" width="120" height="60" as="geometry" />
        </mxCell>
        <mxCell id="DfzfDWxTVEacT_CZlP5h-74" value="alamat_perusahaan&amp;nbsp;" style="rounded=0;whiteSpace=wrap;html=1;" vertex="1" parent="1">
          <mxGeometry x="272" y="1550" width="120" height="60" as="geometry" />
        </mxCell>
        <mxCell id="DfzfDWxTVEacT_CZlP5h-75" style="edgeStyle=orthogonalEdgeStyle;rounded=0;orthogonalLoop=1;jettySize=auto;html=1;entryX=0.5;entryY=0;entryDx=0;entryDy=0;" edge="1" parent="1" source="DfzfDWxTVEacT_CZlP5h-79" target="DfzfDWxTVEacT_CZlP5h-73">
          <mxGeometry relative="1" as="geometry" />
        </mxCell>
        <mxCell id="DfzfDWxTVEacT_CZlP5h-76" style="edgeStyle=orthogonalEdgeStyle;rounded=0;orthogonalLoop=1;jettySize=auto;html=1;entryX=0.5;entryY=0;entryDx=0;entryDy=0;" edge="1" parent="1" source="DfzfDWxTVEacT_CZlP5h-79" target="DfzfDWxTVEacT_CZlP5h-74">
          <mxGeometry relative="1" as="geometry">
            <Array as="points">
              <mxPoint x="82" y="1510" />
              <mxPoint x="332" y="1510" />
            </Array>
          </mxGeometry>
        </mxCell>
        <mxCell id="DfzfDWxTVEacT_CZlP5h-77" style="edgeStyle=orthogonalEdgeStyle;rounded=0;orthogonalLoop=1;jettySize=auto;html=1;entryX=0.5;entryY=0;entryDx=0;entryDy=0;" edge="1" parent="1" source="DfzfDWxTVEacT_CZlP5h-79" target="DfzfDWxTVEacT_CZlP5h-80">
          <mxGeometry relative="1" as="geometry">
            <Array as="points">
              <mxPoint x="72" y="1490" />
              <mxPoint x="452" y="1490" />
            </Array>
          </mxGeometry>
        </mxCell>
        <mxCell id="DfzfDWxTVEacT_CZlP5h-78" style="edgeStyle=orthogonalEdgeStyle;rounded=0;orthogonalLoop=1;jettySize=auto;html=1;entryX=0.5;entryY=0;entryDx=0;entryDy=0;" edge="1" parent="1" source="DfzfDWxTVEacT_CZlP5h-79" target="DfzfDWxTVEacT_CZlP5h-81">
          <mxGeometry relative="1" as="geometry">
            <Array as="points">
              <mxPoint x="62" y="1470" />
              <mxPoint x="572" y="1470" />
            </Array>
          </mxGeometry>
        </mxCell>
        <mxCell id="DfzfDWxTVEacT_CZlP5h-79" value="no_transaksi&amp;nbsp;" style="rounded=0;whiteSpace=wrap;html=1;fillColor=#d5e8d4;strokeColor=#82b366;" vertex="1" parent="1">
          <mxGeometry x="32" y="1550" width="120" height="60" as="geometry" />
        </mxCell>
        <mxCell id="DfzfDWxTVEacT_CZlP5h-80" value="tgl" style="rounded=0;whiteSpace=wrap;html=1;" vertex="1" parent="1">
          <mxGeometry x="392" y="1550" width="120" height="60" as="geometry" />
        </mxCell>
        <mxCell id="DfzfDWxTVEacT_CZlP5h-81" value="no_rekening&amp;nbsp;" style="rounded=0;whiteSpace=wrap;html=1;" vertex="1" parent="1">
          <mxGeometry x="512" y="1550" width="120" height="60" as="geometry" />
        </mxCell>
        <mxCell id="DfzfDWxTVEacT_CZlP5h-85" style="edgeStyle=orthogonalEdgeStyle;rounded=0;orthogonalLoop=1;jettySize=auto;html=1;entryX=0.5;entryY=0;entryDx=0;entryDy=0;" edge="1" parent="1" source="DfzfDWxTVEacT_CZlP5h-82" target="DfzfDWxTVEacT_CZlP5h-84">
          <mxGeometry relative="1" as="geometry">
            <Array as="points">
              <mxPoint x="90" y="1650" />
              <mxPoint x="329" y="1650" />
            </Array>
          </mxGeometry>
        </mxCell>
        <mxCell id="DfzfDWxTVEacT_CZlP5h-82" value="no_transaksi&amp;nbsp;" style="rounded=0;whiteSpace=wrap;html=1;fillColor=#d5e8d4;strokeColor=#82b366;" vertex="1" parent="1">
          <mxGeometry x="30" y="1700" width="120" height="60" as="geometry" />
        </mxCell>
        <mxCell id="DfzfDWxTVEacT_CZlP5h-86" style="edgeStyle=orthogonalEdgeStyle;rounded=0;orthogonalLoop=1;jettySize=auto;html=1;entryX=0.5;entryY=0;entryDx=0;entryDy=0;" edge="1" parent="1" source="DfzfDWxTVEacT_CZlP5h-83" target="DfzfDWxTVEacT_CZlP5h-84">
          <mxGeometry relative="1" as="geometry">
            <Array as="points">
              <mxPoint x="210" y="1650" />
              <mxPoint x="329" y="1650" />
            </Array>
          </mxGeometry>
        </mxCell>
        <mxCell id="DfzfDWxTVEacT_CZlP5h-83" value="id_pegiriman" style="rounded=0;whiteSpace=wrap;html=1;fillColor=#dae8fc;strokeColor=#6c8ebf;" vertex="1" parent="1">
          <mxGeometry x="150" y="1700" width="120" height="60" as="geometry" />
        </mxCell>
        <mxCell id="DfzfDWxTVEacT_CZlP5h-84" value="hormat_kami" style="rounded=0;whiteSpace=wrap;html=1;" vertex="1" parent="1">
          <mxGeometry x="269" y="1700" width="120" height="60" as="geometry" />
        </mxCell>
        <mxCell id="DfzfDWxTVEacT_CZlP5h-94" style="edgeStyle=orthogonalEdgeStyle;rounded=0;orthogonalLoop=1;jettySize=auto;html=1;entryX=0.5;entryY=0;entryDx=0;entryDy=0;" edge="1" parent="1" source="DfzfDWxTVEacT_CZlP5h-87" target="DfzfDWxTVEacT_CZlP5h-88">
          <mxGeometry relative="1" as="geometry">
            <Array as="points">
              <mxPoint x="505" y="1679.93" />
              <mxPoint x="605" y="1679.93" />
            </Array>
          </mxGeometry>
        </mxCell>
        <mxCell id="DfzfDWxTVEacT_CZlP5h-95" style="edgeStyle=orthogonalEdgeStyle;rounded=0;orthogonalLoop=1;jettySize=auto;html=1;entryX=0.5;entryY=0;entryDx=0;entryDy=0;" edge="1" parent="1" source="DfzfDWxTVEacT_CZlP5h-87" target="DfzfDWxTVEacT_CZlP5h-89">
          <mxGeometry relative="1" as="geometry">
            <Array as="points">
              <mxPoint x="495" y="1669.93" />
              <mxPoint x="725" y="1669.93" />
            </Array>
          </mxGeometry>
        </mxCell>
        <mxCell id="DfzfDWxTVEacT_CZlP5h-96" style="edgeStyle=orthogonalEdgeStyle;rounded=0;orthogonalLoop=1;jettySize=auto;html=1;entryX=0.5;entryY=0;entryDx=0;entryDy=0;" edge="1" parent="1" source="DfzfDWxTVEacT_CZlP5h-87" target="DfzfDWxTVEacT_CZlP5h-91">
          <mxGeometry relative="1" as="geometry">
            <Array as="points">
              <mxPoint x="485" y="1659.93" />
              <mxPoint x="844" y="1659.93" />
            </Array>
          </mxGeometry>
        </mxCell>
        <mxCell id="DfzfDWxTVEacT_CZlP5h-97" style="edgeStyle=orthogonalEdgeStyle;rounded=0;orthogonalLoop=1;jettySize=auto;html=1;entryX=0.5;entryY=0;entryDx=0;entryDy=0;" edge="1" parent="1" source="DfzfDWxTVEacT_CZlP5h-87" target="DfzfDWxTVEacT_CZlP5h-93">
          <mxGeometry relative="1" as="geometry">
            <Array as="points">
              <mxPoint x="475" y="1649.93" />
              <mxPoint x="964" y="1649.93" />
            </Array>
          </mxGeometry>
        </mxCell>
        <mxCell id="DfzfDWxTVEacT_CZlP5h-87" value="id_pegiriman" style="rounded=0;whiteSpace=wrap;html=1;fillColor=#dae8fc;strokeColor=#6c8ebf;" vertex="1" parent="1">
          <mxGeometry x="425" y="1699.93" width="120" height="60" as="geometry" />
        </mxCell>
        <mxCell id="DfzfDWxTVEacT_CZlP5h-88" value="pelanggan" style="rounded=0;whiteSpace=wrap;html=1;" vertex="1" parent="1">
          <mxGeometry x="545" y="1699.93" width="120" height="60" as="geometry" />
        </mxCell>
        <mxCell id="DfzfDWxTVEacT_CZlP5h-89" value="alamat_pelangan" style="rounded=0;whiteSpace=wrap;html=1;" vertex="1" parent="1">
          <mxGeometry x="665" y="1699.93" width="120" height="60" as="geometry" />
        </mxCell>
        <mxCell id="DfzfDWxTVEacT_CZlP5h-91" value="penerima" style="rounded=0;whiteSpace=wrap;html=1;" vertex="1" parent="1">
          <mxGeometry x="784" y="1699.93" width="120" height="60" as="geometry" />
        </mxCell>
        <mxCell id="DfzfDWxTVEacT_CZlP5h-92" value="bea_kirim" style="rounded=0;whiteSpace=wrap;html=1;" vertex="1" parent="1">
          <mxGeometry x="2650" y="2680" width="120" height="60" as="geometry" />
        </mxCell>
        <mxCell id="DfzfDWxTVEacT_CZlP5h-93" value="bea_kirim" style="rounded=0;whiteSpace=wrap;html=1;" vertex="1" parent="1">
          <mxGeometry x="904" y="1699.93" width="120" height="60" as="geometry" />
        </mxCell>
        <mxCell id="DfzfDWxTVEacT_CZlP5h-104" style="edgeStyle=orthogonalEdgeStyle;rounded=0;orthogonalLoop=1;jettySize=auto;html=1;entryX=0.5;entryY=0;entryDx=0;entryDy=0;" edge="1" parent="1" source="DfzfDWxTVEacT_CZlP5h-98" target="DfzfDWxTVEacT_CZlP5h-102">
          <mxGeometry relative="1" as="geometry">
            <Array as="points">
              <mxPoint x="90" y="1840" />
              <mxPoint x="331" y="1840" />
            </Array>
          </mxGeometry>
        </mxCell>
        <mxCell id="DfzfDWxTVEacT_CZlP5h-98" value="no_transaksi&amp;nbsp;" style="rounded=0;whiteSpace=wrap;html=1;fillColor=#d5e8d4;strokeColor=#82b366;" vertex="1" parent="1">
          <mxGeometry x="30" y="1880" width="120" height="60" as="geometry" />
        </mxCell>
        <mxCell id="DfzfDWxTVEacT_CZlP5h-105" style="edgeStyle=orthogonalEdgeStyle;rounded=0;orthogonalLoop=1;jettySize=auto;html=1;entryX=0.5;entryY=0;entryDx=0;entryDy=0;" edge="1" parent="1" source="DfzfDWxTVEacT_CZlP5h-99" target="DfzfDWxTVEacT_CZlP5h-102">
          <mxGeometry relative="1" as="geometry">
            <Array as="points">
              <mxPoint x="211" y="1840" />
              <mxPoint x="331" y="1840" />
            </Array>
          </mxGeometry>
        </mxCell>
        <mxCell id="DfzfDWxTVEacT_CZlP5h-99" value="id_transaksi&amp;nbsp;" style="rounded=0;whiteSpace=wrap;html=1;fillColor=#dae8fc;strokeColor=#6c8ebf;" vertex="1" parent="1">
          <mxGeometry x="151" y="1880" width="120" height="60" as="geometry" />
        </mxCell>
        <mxCell id="DfzfDWxTVEacT_CZlP5h-102" value="keterangan" style="rounded=0;whiteSpace=wrap;html=1;" vertex="1" parent="1">
          <mxGeometry x="271" y="1880" width="120" height="60" as="geometry" />
        </mxCell>
        <mxCell id="DfzfDWxTVEacT_CZlP5h-113" style="edgeStyle=orthogonalEdgeStyle;rounded=0;orthogonalLoop=1;jettySize=auto;html=1;entryX=0.5;entryY=0;entryDx=0;entryDy=0;" edge="1" parent="1" source="DfzfDWxTVEacT_CZlP5h-106" target="DfzfDWxTVEacT_CZlP5h-107">
          <mxGeometry relative="1" as="geometry">
            <Array as="points">
              <mxPoint x="519" y="1860" />
              <mxPoint x="604" y="1860" />
            </Array>
          </mxGeometry>
        </mxCell>
        <mxCell id="DfzfDWxTVEacT_CZlP5h-114" style="edgeStyle=orthogonalEdgeStyle;rounded=0;orthogonalLoop=1;jettySize=auto;html=1;entryX=0.5;entryY=0;entryDx=0;entryDy=0;" edge="1" parent="1" source="DfzfDWxTVEacT_CZlP5h-106" target="DfzfDWxTVEacT_CZlP5h-108">
          <mxGeometry relative="1" as="geometry">
            <Array as="points">
              <mxPoint x="509" y="1850" />
              <mxPoint x="724" y="1850" />
            </Array>
          </mxGeometry>
        </mxCell>
        <mxCell id="DfzfDWxTVEacT_CZlP5h-115" style="edgeStyle=orthogonalEdgeStyle;rounded=0;orthogonalLoop=1;jettySize=auto;html=1;entryX=0.5;entryY=0;entryDx=0;entryDy=0;" edge="1" parent="1" source="DfzfDWxTVEacT_CZlP5h-106" target="DfzfDWxTVEacT_CZlP5h-109">
          <mxGeometry relative="1" as="geometry">
            <Array as="points">
              <mxPoint x="499" y="1840" />
              <mxPoint x="844" y="1840" />
            </Array>
          </mxGeometry>
        </mxCell>
        <mxCell id="DfzfDWxTVEacT_CZlP5h-116" style="edgeStyle=orthogonalEdgeStyle;rounded=0;orthogonalLoop=1;jettySize=auto;html=1;entryX=0.5;entryY=0;entryDx=0;entryDy=0;" edge="1" parent="1" source="DfzfDWxTVEacT_CZlP5h-106" target="DfzfDWxTVEacT_CZlP5h-110">
          <mxGeometry relative="1" as="geometry">
            <Array as="points">
              <mxPoint x="489" y="1830" />
              <mxPoint x="964" y="1830" />
            </Array>
          </mxGeometry>
        </mxCell>
        <mxCell id="DfzfDWxTVEacT_CZlP5h-117" style="edgeStyle=orthogonalEdgeStyle;rounded=0;orthogonalLoop=1;jettySize=auto;html=1;entryX=0.5;entryY=0;entryDx=0;entryDy=0;" edge="1" parent="1" source="DfzfDWxTVEacT_CZlP5h-106" target="DfzfDWxTVEacT_CZlP5h-111">
          <mxGeometry relative="1" as="geometry">
            <Array as="points">
              <mxPoint x="479" y="1820" />
              <mxPoint x="1083" y="1820" />
            </Array>
          </mxGeometry>
        </mxCell>
        <mxCell id="DfzfDWxTVEacT_CZlP5h-118" style="edgeStyle=orthogonalEdgeStyle;rounded=0;orthogonalLoop=1;jettySize=auto;html=1;entryX=0.5;entryY=0;entryDx=0;entryDy=0;" edge="1" parent="1" source="DfzfDWxTVEacT_CZlP5h-106" target="DfzfDWxTVEacT_CZlP5h-112">
          <mxGeometry relative="1" as="geometry">
            <Array as="points">
              <mxPoint x="469" y="1810" />
              <mxPoint x="1203" y="1810" />
            </Array>
          </mxGeometry>
        </mxCell>
        <mxCell id="DfzfDWxTVEacT_CZlP5h-106" value="id_transaksi&amp;nbsp;" style="rounded=0;whiteSpace=wrap;html=1;fillColor=#dae8fc;strokeColor=#6c8ebf;" vertex="1" parent="1">
          <mxGeometry x="424" y="1880" width="120" height="60" as="geometry" />
        </mxCell>
        <mxCell id="DfzfDWxTVEacT_CZlP5h-107" value="dp_po" style="rounded=0;whiteSpace=wrap;html=1;" vertex="1" parent="1">
          <mxGeometry x="544" y="1880" width="120" height="60" as="geometry" />
        </mxCell>
        <mxCell id="DfzfDWxTVEacT_CZlP5h-108" value="tunai" style="rounded=0;whiteSpace=wrap;html=1;" vertex="1" parent="1">
          <mxGeometry x="664" y="1880" width="120" height="60" as="geometry" />
        </mxCell>
        <mxCell id="DfzfDWxTVEacT_CZlP5h-109" value="kredit&amp;nbsp;" style="rounded=0;whiteSpace=wrap;html=1;" vertex="1" parent="1">
          <mxGeometry x="784" y="1880" width="120" height="60" as="geometry" />
        </mxCell>
        <mxCell id="DfzfDWxTVEacT_CZlP5h-110" value="b.transfer&amp;nbsp;" style="rounded=0;whiteSpace=wrap;html=1;" vertex="1" parent="1">
          <mxGeometry x="904" y="1880" width="120" height="60" as="geometry" />
        </mxCell>
        <mxCell id="DfzfDWxTVEacT_CZlP5h-111" value="potongan" style="rounded=0;whiteSpace=wrap;html=1;" vertex="1" parent="1">
          <mxGeometry x="1023" y="1880" width="120" height="60" as="geometry" />
        </mxCell>
        <mxCell id="DfzfDWxTVEacT_CZlP5h-112" value="terbilang" style="rounded=0;whiteSpace=wrap;html=1;" vertex="1" parent="1">
          <mxGeometry x="1143" y="1880" width="120" height="60" as="geometry" />
        </mxCell>
        <mxCell id="DfzfDWxTVEacT_CZlP5h-126" style="edgeStyle=orthogonalEdgeStyle;rounded=0;orthogonalLoop=1;jettySize=auto;html=1;entryX=0.5;entryY=0;entryDx=0;entryDy=0;" edge="1" parent="1" source="DfzfDWxTVEacT_CZlP5h-120" target="DfzfDWxTVEacT_CZlP5h-122">
          <mxGeometry relative="1" as="geometry">
            <Array as="points">
              <mxPoint x="90" y="2020" />
              <mxPoint x="332" y="2020" />
            </Array>
          </mxGeometry>
        </mxCell>
        <mxCell id="DfzfDWxTVEacT_CZlP5h-127" style="edgeStyle=orthogonalEdgeStyle;rounded=0;orthogonalLoop=1;jettySize=auto;html=1;entryX=0.5;entryY=0;entryDx=0;entryDy=0;" edge="1" parent="1" source="DfzfDWxTVEacT_CZlP5h-120" target="DfzfDWxTVEacT_CZlP5h-123">
          <mxGeometry relative="1" as="geometry">
            <Array as="points">
              <mxPoint x="90" y="2020" />
              <mxPoint x="452" y="2020" />
            </Array>
          </mxGeometry>
        </mxCell>
        <mxCell id="DfzfDWxTVEacT_CZlP5h-128" style="edgeStyle=orthogonalEdgeStyle;rounded=0;orthogonalLoop=1;jettySize=auto;html=1;entryX=0.5;entryY=0;entryDx=0;entryDy=0;" edge="1" parent="1" source="DfzfDWxTVEacT_CZlP5h-120" target="DfzfDWxTVEacT_CZlP5h-124">
          <mxGeometry relative="1" as="geometry">
            <Array as="points">
              <mxPoint x="90" y="2020" />
              <mxPoint x="572" y="2020" />
            </Array>
          </mxGeometry>
        </mxCell>
        <mxCell id="DfzfDWxTVEacT_CZlP5h-129" style="edgeStyle=orthogonalEdgeStyle;rounded=0;orthogonalLoop=1;jettySize=auto;html=1;entryX=0.5;entryY=0;entryDx=0;entryDy=0;" edge="1" parent="1" source="DfzfDWxTVEacT_CZlP5h-120" target="DfzfDWxTVEacT_CZlP5h-125">
          <mxGeometry relative="1" as="geometry">
            <Array as="points">
              <mxPoint x="90" y="2020" />
              <mxPoint x="692" y="2020" />
            </Array>
          </mxGeometry>
        </mxCell>
        <mxCell id="DfzfDWxTVEacT_CZlP5h-120" value="no_transaksi&amp;nbsp;" style="rounded=0;whiteSpace=wrap;html=1;fillColor=#d5e8d4;strokeColor=#82b366;" vertex="1" parent="1">
          <mxGeometry x="30" y="2090" width="120" height="60" as="geometry" />
        </mxCell>
        <mxCell id="DfzfDWxTVEacT_CZlP5h-130" style="edgeStyle=orthogonalEdgeStyle;rounded=0;orthogonalLoop=1;jettySize=auto;html=1;entryX=0.5;entryY=0;entryDx=0;entryDy=0;" edge="1" parent="1" source="DfzfDWxTVEacT_CZlP5h-121" target="DfzfDWxTVEacT_CZlP5h-125">
          <mxGeometry relative="1" as="geometry">
            <Array as="points">
              <mxPoint x="210" y="2020" />
              <mxPoint x="692" y="2020" />
            </Array>
          </mxGeometry>
        </mxCell>
        <mxCell id="DfzfDWxTVEacT_CZlP5h-131" style="edgeStyle=orthogonalEdgeStyle;rounded=0;orthogonalLoop=1;jettySize=auto;html=1;entryX=0.5;entryY=0;entryDx=0;entryDy=0;" edge="1" parent="1" source="DfzfDWxTVEacT_CZlP5h-121" target="DfzfDWxTVEacT_CZlP5h-124">
          <mxGeometry relative="1" as="geometry">
            <Array as="points">
              <mxPoint x="210" y="2020" />
              <mxPoint x="572" y="2020" />
            </Array>
          </mxGeometry>
        </mxCell>
        <mxCell id="DfzfDWxTVEacT_CZlP5h-132" style="edgeStyle=orthogonalEdgeStyle;rounded=0;orthogonalLoop=1;jettySize=auto;html=1;entryX=0.5;entryY=0;entryDx=0;entryDy=0;" edge="1" parent="1" source="DfzfDWxTVEacT_CZlP5h-121" target="DfzfDWxTVEacT_CZlP5h-122">
          <mxGeometry relative="1" as="geometry">
            <Array as="points">
              <mxPoint x="210" y="2020" />
              <mxPoint x="332" y="2020" />
            </Array>
          </mxGeometry>
        </mxCell>
        <mxCell id="DfzfDWxTVEacT_CZlP5h-121" value="kode_item" style="rounded=0;whiteSpace=wrap;html=1;fillColor=#dae8fc;strokeColor=#6c8ebf;" vertex="1" parent="1">
          <mxGeometry x="150" y="2090" width="120" height="60" as="geometry" />
        </mxCell>
        <mxCell id="DfzfDWxTVEacT_CZlP5h-122" value="jml_beli" style="rounded=0;whiteSpace=wrap;html=1;" vertex="1" parent="1">
          <mxGeometry x="272" y="2090" width="120" height="60" as="geometry" />
        </mxCell>
        <mxCell id="DfzfDWxTVEacT_CZlP5h-123" value="sub_total" style="rounded=0;whiteSpace=wrap;html=1;" vertex="1" parent="1">
          <mxGeometry x="392" y="2090" width="120" height="60" as="geometry" />
        </mxCell>
        <mxCell id="DfzfDWxTVEacT_CZlP5h-124" value="total_akhir" style="rounded=0;whiteSpace=wrap;html=1;" vertex="1" parent="1">
          <mxGeometry x="512" y="2090" width="120" height="60" as="geometry" />
        </mxCell>
        <mxCell id="DfzfDWxTVEacT_CZlP5h-125" value="kembali" style="rounded=0;whiteSpace=wrap;html=1;" vertex="1" parent="1">
          <mxGeometry x="632" y="2090" width="120" height="60" as="geometry" />
        </mxCell>
        <mxCell id="DfzfDWxTVEacT_CZlP5h-140" style="edgeStyle=orthogonalEdgeStyle;rounded=0;orthogonalLoop=1;jettySize=auto;html=1;entryX=0.5;entryY=0;entryDx=0;entryDy=0;" edge="1" parent="1" source="DfzfDWxTVEacT_CZlP5h-133" target="DfzfDWxTVEacT_CZlP5h-134">
          <mxGeometry relative="1" as="geometry">
            <Array as="points">
              <mxPoint x="880" y="2070" />
              <mxPoint x="964" y="2070" />
            </Array>
          </mxGeometry>
        </mxCell>
        <mxCell id="DfzfDWxTVEacT_CZlP5h-141" style="edgeStyle=orthogonalEdgeStyle;rounded=0;orthogonalLoop=1;jettySize=auto;html=1;entryX=0.5;entryY=0;entryDx=0;entryDy=0;" edge="1" parent="1" source="DfzfDWxTVEacT_CZlP5h-133" target="DfzfDWxTVEacT_CZlP5h-135">
          <mxGeometry relative="1" as="geometry">
            <Array as="points">
              <mxPoint x="870" y="2060" />
              <mxPoint x="1084" y="2060" />
            </Array>
          </mxGeometry>
        </mxCell>
        <mxCell id="DfzfDWxTVEacT_CZlP5h-142" style="edgeStyle=orthogonalEdgeStyle;rounded=0;orthogonalLoop=1;jettySize=auto;html=1;entryX=0.5;entryY=0;entryDx=0;entryDy=0;" edge="1" parent="1" source="DfzfDWxTVEacT_CZlP5h-133" target="DfzfDWxTVEacT_CZlP5h-136">
          <mxGeometry relative="1" as="geometry">
            <Array as="points">
              <mxPoint x="860" y="2050" />
              <mxPoint x="1204" y="2050" />
            </Array>
          </mxGeometry>
        </mxCell>
        <mxCell id="DfzfDWxTVEacT_CZlP5h-143" style="edgeStyle=orthogonalEdgeStyle;rounded=0;orthogonalLoop=1;jettySize=auto;html=1;entryX=0.5;entryY=0;entryDx=0;entryDy=0;" edge="1" parent="1" source="DfzfDWxTVEacT_CZlP5h-133" target="DfzfDWxTVEacT_CZlP5h-137">
          <mxGeometry relative="1" as="geometry">
            <Array as="points">
              <mxPoint x="850" y="2040" />
              <mxPoint x="1324" y="2040" />
            </Array>
          </mxGeometry>
        </mxCell>
        <mxCell id="DfzfDWxTVEacT_CZlP5h-144" style="edgeStyle=orthogonalEdgeStyle;rounded=0;orthogonalLoop=1;jettySize=auto;html=1;entryX=0.5;entryY=0;entryDx=0;entryDy=0;" edge="1" parent="1" source="DfzfDWxTVEacT_CZlP5h-133" target="DfzfDWxTVEacT_CZlP5h-138">
          <mxGeometry relative="1" as="geometry">
            <Array as="points">
              <mxPoint x="840" y="2030" />
              <mxPoint x="1444" y="2030" />
            </Array>
          </mxGeometry>
        </mxCell>
        <mxCell id="DfzfDWxTVEacT_CZlP5h-145" style="edgeStyle=orthogonalEdgeStyle;rounded=0;orthogonalLoop=1;jettySize=auto;html=1;entryX=0.5;entryY=0;entryDx=0;entryDy=0;" edge="1" parent="1" source="DfzfDWxTVEacT_CZlP5h-133" target="DfzfDWxTVEacT_CZlP5h-139">
          <mxGeometry relative="1" as="geometry">
            <Array as="points">
              <mxPoint x="830" y="2020" />
              <mxPoint x="1564" y="2020" />
            </Array>
          </mxGeometry>
        </mxCell>
        <mxCell id="DfzfDWxTVEacT_CZlP5h-133" value="kode_item" style="rounded=0;whiteSpace=wrap;html=1;fillColor=#dae8fc;strokeColor=#6c8ebf;" vertex="1" parent="1">
          <mxGeometry x="785" y="2090" width="120" height="60" as="geometry" />
        </mxCell>
        <mxCell id="DfzfDWxTVEacT_CZlP5h-134" value="no_barang" style="rounded=0;whiteSpace=wrap;html=1;" vertex="1" parent="1">
          <mxGeometry x="904" y="2090" width="120" height="60" as="geometry" />
        </mxCell>
        <mxCell id="DfzfDWxTVEacT_CZlP5h-135" value="nama_barang" style="rounded=0;whiteSpace=wrap;html=1;" vertex="1" parent="1">
          <mxGeometry x="1024" y="2090" width="120" height="60" as="geometry" />
        </mxCell>
        <mxCell id="DfzfDWxTVEacT_CZlP5h-136" value="jml_satuan" style="rounded=0;whiteSpace=wrap;html=1;" vertex="1" parent="1">
          <mxGeometry x="1144" y="2090" width="120" height="60" as="geometry" />
        </mxCell>
        <mxCell id="DfzfDWxTVEacT_CZlP5h-137" value="pot(%)" style="rounded=0;whiteSpace=wrap;html=1;" vertex="1" parent="1">
          <mxGeometry x="1264" y="2090" width="120" height="60" as="geometry" />
        </mxCell>
        <mxCell id="DfzfDWxTVEacT_CZlP5h-138" value="harga" style="rounded=0;whiteSpace=wrap;html=1;" vertex="1" parent="1">
          <mxGeometry x="1384" y="2090" width="120" height="60" as="geometry" />
        </mxCell>
        <mxCell id="DfzfDWxTVEacT_CZlP5h-139" value="total" style="rounded=0;whiteSpace=wrap;html=1;" vertex="1" parent="1">
          <mxGeometry x="1504" y="2090" width="120" height="60" as="geometry" />
        </mxCell>
      </root>
    </mxGraphModel>
  </diagram>
</mxfile>
